<?xml version="1.0" standalone="no"?>
<!DOCTYPE svg PUBLIC "-//W3C//DTD SVG 20010904//EN"
 "http://www.w3.org/TR/2001/REC-SVG-20010904/DTD/svg10.dtd">
<svg version="1.0" xmlns="http://www.w3.org/2000/svg"
 width="1600.000000pt" height="1600.000000pt" viewBox="0 0 1600.000000 1600.000000"
 preserveAspectRatio="xMidYMid meet">
<metadata>
Created by potrace 1.11, written by Peter Selinger 2001-2013
</metadata>
<g transform="translate(0.000000,1600.000000) scale(0.100000,-0.100000)"
fill="#000000" stroke="none">
<path d="M11695 15319 c-722 -67 -1397 -366 -1946 -862 -113 -102 -274 -275
-365 -393 l-46 -59 -3242 -5 -3241 -5 -100 -27 c-359 -99 -624 -364 -723 -723
l-27 -100 -3 -5030 -2 -5030 3600 3600 c1979 1979 3601 3597 3603 3595 2 -3
38 -58 80 -123 42 -64 120 -179 174 -255 98 -137 169 -232 599 -802 540 -715
823 -1154 1079 -1675 313 -639 502 -1234 636 -2010 47 -271 61 -323 101 -364
53 -54 160 -65 232 -23 54 32 75 91 117 338 51 304 82 454 135 666 229 919
617 1729 1258 2623 108 151 331 450 596 800 438 578 641 888 811 1240 214 444
309 848 309 1315 0 1042 -489 2019 -1326 2650 -500 378 -1084 602 -1714 660
-132 12 -463 11 -595 -1z m-6741 -1989 c386 -28 733 -164 1029 -403 l88 -71
-259 -259 -259 -259 -62 45 c-120 89 -245 149 -396 190 -68 18 -107 21 -260
22 -153 0 -193 -3 -266 -22 -497 -127 -839 -564 -839 -1073 0 -219 63 -429
186 -617 49 -76 223 -248 299 -298 193 -126 386 -184 616 -185 393 -1 711 175
897 498 38 65 92 189 92 211 0 8 -147 11 -495 11 l-495 0 0 354 0 354 863 -6
c552 -3 864 -8 868 -15 16 -24 33 -216 33 -362 -1 -795 -408 -1435 -1062
-1669 -313 -112 -733 -142 -1062 -75 -646 130 -1179 604 -1384 1231 -67 203
-81 303 -81 568 0 206 3 249 23 348 149 737 714 1304 1446 1452 60 12 157 25
215 29 58 5 111 9 116 9 6 1 73 -3 149 -8z"/>
<path d="M5540 4455 l-2455 -2455 4915 0 4915 0 -2455 2455 c-1350 1350 -2457
2455 -2460 2455 -3 0 -1110 -1105 -2460 -2455z"/>
</g>
</svg>
