<?xml version="1.0" encoding="utf-8"?>
<!-- Generator: Adobe Illustrator 19.2.0, SVG Export Plug-In . SVG Version: 6.00 Build 0)  -->
<svg version="1.1" id="Capa_1" xmlns="http://www.w3.org/2000/svg" xmlns:xlink="http://www.w3.org/1999/xlink" x="0px" y="0px"
	 viewBox="0 0 17.6 17.6" style="enable-background:new 0 0 17.6 17.6;" xml:space="preserve" width="52px" height="52px">
<style type="text/css">
	.st0{fill:#FFFFFF;}
	.st1{fill:#91DC5A;}
</style>
<g>
	<g>
		<g>
			<path class="st0" d="M8.7,0.7C5.9,0.7,3.6,3,3.6,5.8c0,0.8,0.2,1.5,0.5,2.2l4.6,9l4.5-8.9c0.4-0.7,0.6-1.5,0.6-2.3
				C13.8,2.9,11.5,0.7,8.7,0.7z"/>
		</g>
	</g>
</g>
<g>
	<path class="st1" d="M8.7,1.3c-2.5,0-4.5,2-4.5,4.5c0,0.7,0.2,1.3,0.4,1.9l4,7.9l4-7.8c0.3-0.6,0.5-1.3,0.5-2
		C13.1,3.3,11.1,1.3,8.7,1.3z M8.6,7.9c-1.1,0-2-0.9-2-2s0.9-2,2-2s2,0.9,2,2S9.7,7.9,8.6,7.9z"/>
</g>
</svg>
